<?xml version="1.0" encoding="UTF-8"?>
<svg version="1.1" xmlns="http://www.w3.org/2000/svg" width="512" height="512">
<path d="M0 0 C1.01790619 0.00215515 2.03581238 0.0043103 3.08456421 0.00653076 C17.69363523 0.05620146 32.02575853 0.30709809 46.375 3.3125 C47.34985352 3.51117676 48.32470703 3.70985352 49.32910156 3.91455078 C97.7109774 14.03517194 141.69928269 35.9516877 177.375 70.3125 C178.3640332 71.26068604 178.3640332 71.26068604 179.37304688 72.22802734 C188.86130305 81.37247479 197.6012044 90.66984009 205.375 101.3125 C206.23306152 102.46355017 207.09113451 103.61459177 207.94921875 104.765625 C213.98736829 112.95680614 219.34595521 121.47054105 224.375 130.3125 C224.73948242 130.94430176 225.10396484 131.57610352 225.47949219 132.22705078 C247.08534998 169.97532572 256.85198095 212.74189997 256.6875 255.9375 C256.68534485 256.95540619 256.6831897 257.97331238 256.68096924 259.02206421 C256.63129854 273.63113523 256.38040191 287.96325853 253.375 302.3125 C253.07698486 303.77478027 253.07698486 303.77478027 252.77294922 305.26660156 C242.65232806 353.6484774 220.7358123 397.63678269 186.375 433.3125 C185.74287598 433.97185547 185.11075195 434.63121094 184.45947266 435.31054688 C175.31502521 444.79880305 166.01765991 453.5387044 155.375 461.3125 C154.22394983 462.17056152 153.07290823 463.02863451 151.921875 463.88671875 C143.73224019 469.92427396 135.22961724 475.30707302 126.375 480.3125 C125.66778809 480.7146875 124.96057617 481.116875 124.23193359 481.53125 C101.09654164 494.5566741 75.92537591 503.30551461 49.9375 508.625 C49.21860596 508.77235596 48.49971191 508.91971191 47.7590332 509.0715332 C33.08339502 511.86090125 18.55831162 512.66142619 3.64770508 512.62817383 C0.70811513 512.6250221 -2.2304558 512.64854926 -5.16992188 512.67382812 C-18.54306192 512.71848737 -31.43916711 511.51301542 -44.625 509.3125 C-46.33055054 509.03031616 -46.33055054 509.03031616 -48.07055664 508.74243164 C-91.33802759 500.97044532 -132.38793216 480.98345309 -165.625 452.3125 C-166.37007813 451.67828125 -167.11515625 451.0440625 -167.8828125 450.390625 C-181.38779833 438.57948485 -194.05918743 425.82889772 -204.625 411.3125 C-205.48149066 410.16255169 -206.33826433 409.01281411 -207.1953125 407.86328125 C-213.23534209 399.67315742 -218.61867614 391.16870382 -223.625 382.3125 C-224.0271875 381.60528809 -224.429375 380.89807617 -224.84375 380.16943359 C-237.8691741 357.03404164 -246.61801461 331.86287591 -251.9375 305.875 C-252.08485596 305.15610596 -252.23221191 304.43721191 -252.3840332 303.6965332 C-255.35789088 288.05024391 -255.99800362 272.57681954 -255.9375 256.6875 C-255.93534485 255.66959381 -255.9331897 254.65168762 -255.93096924 253.60293579 C-255.88129854 238.99386477 -255.63040191 224.66174147 -252.625 210.3125 C-252.42632324 209.33764648 -252.22764648 208.36279297 -252.02294922 207.35839844 C-241.90232806 158.9765226 -219.9858123 114.98821731 -185.625 79.3125 C-184.99287598 78.65314453 -184.36075195 77.99378906 -183.70947266 77.31445312 C-174.56502521 67.82619695 -165.26765991 59.0862956 -154.625 51.3125 C-153.47394983 50.45443848 -152.32290823 49.59636549 -151.171875 48.73828125 C-142.98224019 42.70072604 -134.47961724 37.31792698 -125.625 32.3125 C-124.91778809 31.9103125 -124.21057617 31.508125 -123.48193359 31.09375 C-100.34654164 18.0683259 -75.17537591 9.31948539 -49.1875 4 C-48.46860596 3.85264404 -47.74971191 3.70528809 -47.0090332 3.5534668 C-31.36274391 0.57960912 -15.88931954 -0.06050362 0 0 Z " fill="#7483F1" transform="translate(255.625,-0.3125)"/>
<path d="M0 0 C0.72901016 -0.00570007 1.45802032 -0.01140015 2.2091217 -0.01727295 C3.74787981 -0.02666919 5.28665754 -0.03323538 6.82543945 -0.03710938 C9.12294075 -0.04671934 11.41950842 -0.07775301 13.71679688 -0.109375 C27.62277469 -0.21160489 40.64706725 1.4854729 53.53515625 7.015625 C54.80540649 7.54446289 54.80540649 7.54446289 56.10131836 8.08398438 C87.44287637 21.3463044 110.41853821 45.87754209 123.22265625 77.203125 C135.0030735 108.63023813 131.9039509 141.84675282 118.50390625 172.1484375 C117.11299087 175.1861442 115.69373707 178.20358077 114.22265625 181.203125 C120.17395495 186.68823864 126.1249709 192.16381126 132.23828125 197.46875 C137.14800345 201.75992452 141.96140443 206.16114608 146.80078125 210.53125 C151.22387026 214.52017077 155.6688063 218.47880407 160.16015625 222.390625 C163.39778955 225.2358179 166.58951915 228.13166336 169.7890625 231.01953125 C171.89776771 232.91161185 174.02185426 234.78218258 176.16015625 236.640625 C180.3542999 240.29249553 184.45359917 244.04578684 188.5625 247.79296875 C190.78511929 249.80670752 193.02333974 251.79624537 195.28515625 253.765625 C195.91164063 254.31476563 196.538125 254.86390625 197.18359375 255.4296875 C198.69979673 256.74837745 200.22774636 258.05358586 201.76171875 259.3515625 C209.51960157 266.05675326 215.19010819 272.92835451 217.22265625 283.203125 C217.57470761 288.33667389 217.86111482 293.28774929 216.22265625 298.203125 C233.71265625 298.203125 251.20265625 298.203125 269.22265625 298.203125 C269.22265625 200.193125 269.22265625 102.183125 269.22265625 1.203125 C277.09763832 7.95310963 277.09763832 7.95310963 280.82519531 11.69213867 C281.6558551 12.52287399 282.48651489 13.35360931 283.34234619 14.20951843 C284.21550476 15.08783829 285.08866333 15.96615814 285.98828125 16.87109375 C286.90349548 17.78772293 287.81870972 18.70435211 288.76165771 19.64875793 C291.17601886 22.06690521 293.58736228 24.48803932 295.99804688 26.90985107 C298.45389983 29.37597063 300.9126152 31.83923276 303.37109375 34.30273438 C307.68782536 38.62899303 312.00207937 42.95771197 316.31451416 47.28825378 C317.50026273 48.47818393 318.69722048 49.65718356 319.91099548 50.81851196 C321.71616447 52.72408128 322.36988741 54.66364476 323.2734375 57.12109375 C323.63937012 58.11608887 324.00530273 59.11108398 324.38232422 60.13623047 C324.76275879 61.21018066 325.14319336 62.28413086 325.53515625 63.390625 C325.93105957 64.50324707 326.32696289 65.61586914 326.73486328 66.76220703 C332.78268754 84.16412767 336.87845239 101.93886882 339.22265625 120.203125 C339.3099852 120.87033066 339.39731415 121.53753632 339.48728943 122.22496033 C340.18353116 127.94132976 340.39721789 133.58055132 340.42578125 139.3359375 C340.43284088 140.28228561 340.43990051 141.22863373 340.44717407 142.20365906 C340.67506724 181.71964612 340.67506724 181.71964612 337.22265625 198.203125 C336.92464111 199.66540527 336.92464111 199.66540527 336.62060547 201.15722656 C326.49998431 249.5391024 304.58346855 293.52740769 270.22265625 329.203125 C269.59053223 329.86248047 268.9584082 330.52183594 268.30712891 331.20117188 C259.16268146 340.68942805 249.86531616 349.4293294 239.22265625 357.203125 C238.07160608 358.06118652 236.92056448 358.91925951 235.76953125 359.77734375 C227.57989644 365.81489896 219.07727349 371.19769802 210.22265625 376.203125 C209.51544434 376.6053125 208.80823242 377.0075 208.07958984 377.421875 C184.94419789 390.4472991 159.77303216 399.19613961 133.78515625 404.515625 C133.06626221 404.66298096 132.34736816 404.81033691 131.60668945 404.9621582 C116.93105127 407.75152625 102.40596787 408.55205119 87.49536133 408.51879883 C84.55577138 408.5156471 81.61720045 408.53917426 78.67773438 408.56445312 C61.45512185 408.62214881 44.53597855 406.74825382 27.72265625 402.953125 C26.79324219 402.74405518 25.86382812 402.53498535 24.90625 402.31958008 C17.95802005 400.70350876 11.06622713 398.90411677 4.22265625 396.890625 C3.32095703 396.64344727 2.41925781 396.39626953 1.49023438 396.14160156 C-3.03898056 394.73415059 -6.01337118 393.34119339 -9.02723694 389.61875916 C-12.93784034 384.96409555 -17.15545857 380.69876267 -21.46655273 376.41625977 C-22.30638199 375.57789078 -23.14621124 374.73952179 -24.01148987 373.87574768 C-25.82131026 372.06971141 -27.63228424 370.26483054 -29.44430351 368.46100044 C-32.30787329 365.61024962 -35.1683305 362.75641051 -38.02784729 359.90159607 C-44.08720203 353.85328436 -50.15081911 347.8092541 -56.21484375 341.765625 C-62.78707934 335.21543033 -69.35855529 328.66448331 -75.92520195 322.10868496 C-78.30341852 319.73463971 -80.68271474 317.36169664 -83.06445122 314.99118233 C-85.70979107 312.35771794 -88.35215837 309.72130518 -90.99389648 307.08422852 C-91.78706268 306.29622864 -92.58022888 305.50822876 -93.39743042 304.6963501 C-94.46768211 303.62620415 -94.46768211 303.62620415 -95.55955505 302.53443909 C-96.1846569 301.91155786 -96.80975874 301.28867662 -97.45380306 300.6469202 C-98.77734375 299.203125 -98.77734375 299.203125 -98.77734375 298.203125 C-20.56734375 297.873125 57.64265625 297.543125 138.22265625 297.203125 C133.60265625 292.253125 128.98265625 287.303125 124.22265625 282.203125 C120.41015625 277.890625 120.41015625 277.890625 118.8515625 276.08203125 C115.37107075 272.06736331 111.78354771 268.14639406 108.22265625 264.203125 C103.4547865 258.92326924 98.70753407 253.63020694 94.03515625 248.265625 C91.1966655 245.03561828 88.30796857 241.85114935 85.42578125 238.66015625 C82.8907958 235.83301822 80.40001473 232.97020141 77.92578125 230.08984375 C75.77516328 227.7073931 73.50529751 225.45859196 71.22265625 223.203125 C70.04832031 223.79480469 68.87398437 224.38648438 67.6640625 224.99609375 C59.68375179 228.9420068 51.79160788 232.65980155 43.22265625 235.140625 C42.5788501 235.32713623 41.93504395 235.51364746 41.27172852 235.70581055 C31.22339563 238.44580133 21.5102351 239.56690019 11.09765625 239.515625 C9.91204102 239.51071045 8.72642578 239.5057959 7.50488281 239.50073242 C-25.08397447 239.06819586 -52.58914096 225.53504261 -75.77734375 203.203125 C-76.43347656 202.61015625 -77.08960938 202.0171875 -77.765625 201.40625 C-96.57374236 183.93848124 -108.79920389 153.85344183 -109.88964844 128.60253906 C-110.33149988 115.50886214 -109.951122 102.94275994 -106.77734375 90.203125 C-106.62168945 89.55504883 -106.46603516 88.90697266 -106.30566406 88.23925781 C-98.74174408 57.84769908 -77.31349987 31.49105955 -50.80273438 15.38037109 C-35.29065462 6.36406823 -18.07684576 0.11310005 0 0 Z " fill="#636978" transform="translate(171.77734375,103.796875)"/>
<path d="M0 0 C7.87498207 6.74998463 7.87498207 6.74998463 11.60253906 10.48901367 C12.43319885 11.31974899 13.26385864 12.15048431 14.11968994 13.00639343 C14.99284851 13.88471329 15.86600708 14.76303314 16.765625 15.66796875 C17.68083923 16.58459793 18.59605347 17.50122711 19.53900146 18.44563293 C21.95336261 20.86378021 24.36470603 23.28491432 26.77539062 25.70672607 C29.23124358 28.17284563 31.68995895 30.63610776 34.1484375 33.09960938 C38.46516911 37.42586803 42.77942312 41.75458697 47.09185791 46.08512878 C48.27760648 47.27505893 49.47456423 48.45405856 50.68833923 49.61538696 C52.49350822 51.52095628 53.14723116 53.46051976 54.05078125 55.91796875 C54.41671387 56.91296387 54.78264648 57.90795898 55.15966797 58.93310547 C55.54010254 60.00705566 55.92053711 61.08100586 56.3125 62.1875 C56.70840332 63.30012207 57.10430664 64.41274414 57.51220703 65.55908203 C63.56003129 82.96100267 67.65579614 100.73574382 70 119 C70.08732895 119.66720566 70.1746579 120.33441132 70.26463318 121.02183533 C70.96087491 126.73820476 71.17456164 132.37742632 71.203125 138.1328125 C71.21018463 139.07916061 71.21724426 140.02550873 71.22451782 141.00053406 C71.45241099 180.51652112 71.45241099 180.51652112 68 197 C67.70198486 198.46228027 67.70198486 198.46228027 67.39794922 199.95410156 C57.27732806 248.3359774 35.3608123 292.32428269 1 328 C0.36787598 328.65935547 -0.26424805 329.31871094 -0.91552734 329.99804688 C-10.05997479 339.48630305 -19.35734009 348.2262044 -30 356 C-31.15105017 356.85806152 -32.30209177 357.71613451 -33.453125 358.57421875 C-41.64275981 364.61177396 -50.14538276 369.99457302 -59 375 C-59.70721191 375.4021875 -60.41442383 375.804375 -61.14306641 376.21875 C-84.27845836 389.2441741 -109.44962409 397.99301461 -135.4375 403.3125 C-136.15639404 403.45985596 -136.87528809 403.60721191 -137.6159668 403.7590332 C-152.29160498 406.54840125 -166.81668838 407.34892619 -181.72729492 407.31567383 C-184.66688487 407.3125221 -187.6054558 407.33604926 -190.54492188 407.36132812 C-207.7675344 407.41902381 -224.6866777 405.54512882 -241.5 401.75 C-242.42941406 401.54093018 -243.35882813 401.33186035 -244.31640625 401.11645508 C-251.2646362 399.50038376 -258.15642912 397.70099177 -265 395.6875 C-265.90169922 395.44032227 -266.80339844 395.19314453 -267.73242188 394.93847656 C-272.26163681 393.53102559 -275.23602743 392.13806839 -278.24989319 388.41563416 C-282.16049659 383.76097055 -286.37811482 379.49563767 -290.68920898 375.21313477 C-291.52903824 374.37476578 -292.36886749 373.53639679 -293.23414612 372.67262268 C-295.04396651 370.86658641 -296.85494049 369.06170554 -298.66695976 367.25787544 C-301.53052954 364.40712462 -304.39098675 361.55328551 -307.25050354 358.69847107 C-313.30985828 352.65015936 -319.37347536 346.6061291 -325.4375 340.5625 C-332.00973559 334.01230533 -338.58121154 327.46135831 -345.1478582 320.90555996 C-347.52607477 318.53151471 -349.90537099 316.15857164 -352.28710747 313.78805733 C-354.93244732 311.15459294 -357.57481462 308.51818018 -360.21655273 305.88110352 C-361.00971893 305.09310364 -361.80288513 304.30510376 -362.62008667 303.4932251 C-363.69033836 302.42307915 -363.69033836 302.42307915 -364.7822113 301.33131409 C-365.71986407 300.39699224 -365.71986407 300.39699224 -366.67645931 299.4437952 C-368 298 -368 298 -368 297 C-337.70619999 296.77175441 -307.412489 296.59484231 -277.11802537 296.48934671 C-273.53953828 296.47684 -269.9610529 296.46389674 -266.38256836 296.45068359 C-265.67017222 296.44806049 -264.95777609 296.44543739 -264.22379219 296.44273479 C-252.69655691 296.39925001 -241.16982158 296.32042093 -229.64288265 296.22847204 C-217.81051055 296.13487566 -205.97839983 296.07939542 -194.14567274 296.05911505 C-187.50115557 296.04663813 -180.85756758 296.01544803 -174.21339607 295.94269943 C-167.957814 295.8747613 -161.70383008 295.8538963 -155.44791412 295.86892319 C-153.15371193 295.86617474 -150.85945567 295.84631671 -148.56557274 295.80794525 C-131.24090229 295.53238718 -131.24090229 295.53238718 -125.7123394 299.15315628 C-123.41351887 301.66353628 -121.71733501 304.07254825 -120 307 C-112.59192692 316.32909949 -104.06975788 322.94944889 -91.96484375 324.3515625 C-81.37718242 324.83109901 -72.00974447 321.46020023 -63.75 314.80078125 C-58.77815768 309.68466672 -56.22803716 303.68411149 -54 297 C-36.18 297 -18.36 297 0 297 C0 198.99 0 100.98 0 0 Z " fill="#4253CE" transform="translate(441,105)"/>
<path d="M0 0 C81.51 0 163.02 0 247 0 C247 98.67 247 197.34 247 299 C229.84 299 212.68 299 195 299 C195 294.05 195 289.1 195 284 C191.32883503 270.19641971 182.40526096 262.13768566 172 253 C171.27425781 252.360625 170.54851562 251.72125 169.80078125 251.0625 C168.52641386 249.94581296 167.24910543 248.83247253 165.96875 247.72265625 C163.74675273 245.77840864 161.56144777 243.79663036 159.375 241.8125 C155.39455193 238.21548959 151.33946869 234.72118804 147.25 231.25 C141.6393701 226.480196 136.20980165 221.54534736 130.83569336 216.51147461 C127.27911621 213.18074389 123.67768271 209.9220688 119.98828125 206.73828125 C117.45947072 204.52743511 114.98127436 202.26403557 112.5 200 C105.77544319 193.86987915 98.91113042 187.91762528 92 182 C92.51949219 180.87464844 93.03898437 179.74929688 93.57421875 178.58984375 C108.67203824 145.52688779 113.37727314 112.26586761 100.796875 77.49609375 C89.78808657 48.91176217 67.92639196 24.89355061 39.99951172 12.15795898 C36.69355168 10.70225624 33.35723285 9.33261499 30 8 C28.99324219 7.5978125 27.98648438 7.195625 26.94921875 6.78125 C18.2229773 3.59490458 9.15312246 2.34245796 0 1 C0 0.67 0 0.34 0 0 Z " fill="#E8ECF4" transform="translate(193,103)"/>
<path d="M0 0 C1.70736328 0.56074219 1.70736328 0.56074219 3.44921875 1.1328125 C26.92303808 9.52227219 43.8780966 25.92655059 55 48 C56.92964522 52.26526775 58.55446173 56.54839918 60 61 C60.3196875 61.95519531 60.639375 62.91039062 60.96875 63.89453125 C67.23892874 86.04335706 62.83986881 110.23732617 52.06005859 130.14453125 C49.42640459 134.75433558 46.37714438 138.9139131 43 143 C42.32453125 143.83789062 41.6490625 144.67578125 40.953125 145.5390625 C30.63975519 157.69679407 18.55527429 164.97029102 4 171 C3.13375 171.35964844 2.2675 171.71929687 1.375 172.08984375 C-19.04357299 179.6342062 -43.84072285 177.63943862 -63.36108398 168.75512695 C-87.3963599 157.37529246 -103.89386098 139.04188232 -113 114 C-114.17635458 110.02980328 -115.1602389 106.05381079 -116 102 C-116.17055908 101.22100342 -116.34111816 100.44200684 -116.5168457 99.6394043 C-120.82215481 76.12010327 -113.59386358 53.06622223 -100.5625 33.625 C-99.39865633 32.0653974 -98.21088329 30.5233693 -97 29 C-96.36964844 28.19433594 -95.73929688 27.38867188 -95.08984375 26.55859375 C-72.36873523 -0.57932839 -33.36063397 -11.05997182 0 0 Z " fill="#E8ECF4" transform="translate(209,137)"/>
<path d="M0 0 C3.21107143 3.21107143 5.02405421 6.54778471 7.125 10.5 C11.06622024 17.67882386 15.44794 23.94320728 21 30 C21.83144531 30.91265625 22.66289063 31.8253125 23.51953125 32.765625 C44.11911384 54.36050221 73.10702469 68.29840512 103.0546875 69.23828125 C116.60982421 69.45758471 128.99976769 68.93829622 142 65 C142.6482373 64.81276367 143.29647461 64.62552734 143.96435547 64.43261719 C153.76884994 61.57204661 162.86576946 57.49585532 172 53 C177.48258507 58.94855523 182.95721483 64.89564007 188.2578125 71.0078125 C190.31500399 73.36020635 192.40596915 75.68034966 194.5 78 C197.18983431 80.98062721 199.86310364 83.97245233 202.5 87 C206.61081039 91.71701284 210.80667845 96.35638889 215 101 C219.78001155 106.29330138 224.5470577 111.59403351 229.2265625 116.9765625 C231.95079458 120.08482729 234.72452866 123.148767 237.49609375 126.21484375 C239 128 239 128 239 129 C160.13 129 81.26 129 0 129 C0 86.43 0 43.86 0 0 Z " fill="#FEFEFE" transform="translate(72,273)"/>
<path d="M0 0 C1.70736328 0.56074219 1.70736328 0.56074219 3.44921875 1.1328125 C26.92303808 9.52227219 43.8780966 25.92655059 55 48 C56.92964522 52.26526775 58.55446173 56.54839918 60 61 C60.3196875 61.95519531 60.639375 62.91039062 60.96875 63.89453125 C67.23495362 86.02931535 62.84498355 110.22619579 52.07763672 130.12695312 C49.43707643 134.71652687 46.33787421 138.90060652 43 143 C42.20142578 143.99 42.20142578 143.99 41.38671875 145 C40.27752649 146.34977762 39.14284051 147.67859065 38 149 C34.51027997 147.50469676 32.26534605 145.50808338 29.59863281 142.82568359 C28.7380426 141.96494232 27.87745239 141.10420105 26.99078369 140.21737671 C26.07085632 139.28712677 25.15092896 138.35687683 24.203125 137.3984375 C23.24520903 136.43678914 22.28684886 135.47558306 21.32806396 134.51480103 C18.81164875 131.99076718 16.30129893 129.46078409 13.79217529 126.92950439 C11.22837559 124.3452081 8.65887082 121.76659801 6.08984375 119.1875 C1.05430543 114.13054303 -3.9748456 109.06727744 -9 104 C-8.52269162 102.5410574 -8.04308958 101.08286504 -7.5625 99.625 C-7.29566406 98.81289062 -7.02882813 98.00078125 -6.75390625 97.1640625 C-6 95 -6 95 -5 93 C-4.19154233 83.76048381 -4.25433265 75.6841328 -10 68 C-15.73916746 61.42491033 -21.79072013 58.42029417 -30.4375 57.72265625 C-37.22488742 57.54290552 -41.95276072 58.04071269 -48 61 C-52.08607046 60.67111948 -54.03043866 59.46383076 -56.87231445 56.58178711 C-57.59268387 55.86111557 -58.31305328 55.14044403 -59.05525208 54.39793396 C-59.8169017 53.61563919 -60.57855133 52.83334442 -61.36328125 52.02734375 C-62.15526413 51.22970108 -62.94724701 50.43205841 -63.76322937 49.61024475 C-66.28919543 47.06189867 -68.80089563 44.49999418 -71.3125 41.9375 C-73.02316669 40.20677064 -74.73474467 38.47694149 -76.44726562 36.74804688 C-80.64213851 32.50908486 -84.82538425 28.25890798 -89 24 C-86.01952409 17.83855678 -82.22948648 14.09869748 -76.4375 10.5 C-75.81617188 10.10981689 -75.19484375 9.71963379 -74.5546875 9.31762695 C-52.0608598 -4.55337434 -25.15157536 -8.3384421 0 0 Z " fill="#FDFDFE" transform="translate(209,137)"/>
<path d="M0 0 C81.51 0 163.02 0 247 0 C247 17.49 247 34.98 247 53 C226.38984792 53.20322168 205.78050788 53.36898327 185.16960812 53.46630955 C175.59944205 53.51270251 166.02994299 53.57594225 156.46020508 53.67895508 C148.11841862 53.76870684 139.77711521 53.82673463 131.43485934 53.84679645 C127.0180519 53.85852283 122.60262627 53.88604411 118.18626213 53.95157051 C114.02685606 54.01278285 109.869397 54.03148166 105.70958328 54.01796913 C104.18532402 54.02043993 102.66099796 54.03827642 101.13712883 54.07284927 C89.61934734 54.32128435 89.61934734 54.32128435 85.57869148 51.02436638 C83.80094011 48.75966382 82.38858476 46.51616641 81 44 C66.85360425 27.09157452 50.41132457 15.95433191 30 8 C28.49566406 7.40058594 28.49566406 7.40058594 26.9609375 6.7890625 C18.23420982 3.59166641 9.15679466 2.34299655 0 1 C0 0.67 0 0.34 0 0 Z " fill="#BDC2D2" transform="translate(193,103)"/>
<path d="M0 0 C7.15801225 5.82628904 13.52591766 12.4382985 20 19 C18.42775086 22.53342307 16.27372275 25.29111229 13.875 28.3125 C5.48958407 39.26216418 0.19192738 50.58442403 -3 64 C-3.35707031 65.22460938 -3.71414062 66.44921875 -4.08203125 67.7109375 C-5.35743079 72.83890211 -5.34236776 77.92774484 -5.3125 83.1875 C-5.30758545 84.20835693 -5.3026709 85.22921387 -5.29760742 86.28100586 C-5.17988145 93.87402899 -4.37073635 100.75395907 -2 108 C-1.6596875 109.12148437 -1.319375 110.24296875 -0.96875 111.3984375 C6.58828104 134.5290798 21.90114405 152.83156097 43.6484375 163.88671875 C64.11386769 173.94710438 87.91248707 176.42888501 110 170 C122.55891581 165.67431143 133.75695134 159.25046903 143.7734375 150.5390625 C146 149 146 149 150 149 C152.19824219 150.74414062 152.19824219 150.74414062 154.546875 153.15625 C155.39121094 154.01347656 156.23554688 154.87070312 157.10546875 155.75390625 C157.97816406 156.66011719 158.85085938 157.56632813 159.75 158.5 C160.63816406 159.40621094 161.52632812 160.31242188 162.44140625 161.24609375 C164.63681556 163.48871616 166.82237387 165.74012768 169 168 C155.67014154 184.31935052 136.11569697 194.50630498 116 200 C115.35369629 200.19319824 114.70739258 200.38639648 114.04150391 200.58544922 C85.019036 209.17094141 53.27313203 204.14785598 26.8515625 190.16015625 C15.99780705 184.19248353 6.87323913 176.54557151 -2 168 C-2.65613281 167.40703125 -3.31226563 166.8140625 -3.98828125 166.203125 C-22.79639861 148.73535624 -35.02186014 118.65031683 -36.11230469 93.39941406 C-36.55415613 80.30573714 -36.17377825 67.73963494 -33 55 C-32.8443457 54.35192383 -32.68869141 53.70384766 -32.52832031 53.03613281 C-27.75821703 33.87002922 -17.48374135 14.46695606 -2 2 C-1.34 1.34 -0.68 0.68 0 0 Z " fill="#555A67" transform="translate(98,139)"/>
<path d="M0 0 C5.00842078 3.10522088 9.12580301 6.74478644 13.375 10.8125 C14.7087958 12.07380514 16.04342189 13.33423287 17.37890625 14.59375 C18.00941895 15.18929688 18.63993164 15.78484375 19.28955078 16.3984375 C21.84079779 18.78727284 24.46536029 21.08296754 27.11328125 23.36328125 C29.43658787 25.37873772 31.71748465 27.43848462 34 29.5 C36.95869751 32.17048344 39.92926472 34.82298058 42.9375 37.4375 C47.13164365 41.08937053 51.23094292 44.84266184 55.33984375 48.58984375 C57.56246304 50.60358252 59.80068349 52.59312037 62.0625 54.5625 C62.68898438 55.11164063 63.31546875 55.66078125 63.9609375 56.2265625 C65.47714048 57.54525245 67.00509011 58.85046086 68.5390625 60.1484375 C77.15499802 67.59524902 82.88184715 75.25137549 84.35546875 86.78125 C84.88559732 97.67037733 81.02909316 107.75697115 74.015625 116.06640625 C70.43264744 119.50356495 66.42747806 121.8073442 62 124 C61.35289062 124.3403125 60.70578125 124.680625 60.0390625 125.03125 C51.3046359 129.01149503 41.45941312 127.70827134 32.73046875 124.4609375 C25.70068766 120.69965263 20.24644249 115.49497745 14.9375 109.625 C14.32680664 108.96016602 13.71611328 108.29533203 13.08691406 107.61035156 C9.57173574 103.77167903 6.09905689 99.89789437 2.703125 95.953125 C0.50634095 93.43387724 -1.74689619 90.96897004 -4 88.5 C-7.45575413 84.71065874 -10.8652289 80.88916302 -14.23046875 77.01953125 C-17.77576954 72.97334911 -21.39458999 68.99256813 -25 65 C-28.00559992 61.67165109 -31.00539744 58.33824547 -34 55 C-34.67675781 54.25234375 -35.35351562 53.5046875 -36.05078125 52.734375 C-36.67339844 52.03828125 -37.29601562 51.3421875 -37.9375 50.625 C-38.48277344 50.01914062 -39.02804687 49.41328125 -39.58984375 48.7890625 C-41.04368571 46.94457602 -41.98178945 45.10839101 -43 43 C-28.66666667 28.66666667 -14.33333333 14.33333333 0 0 Z " fill="#FE432F" transform="translate(305,303)"/>
<path d="M0 0 C5.00842078 3.10522088 9.12580301 6.74478644 13.375 10.8125 C14.7087958 12.07380514 16.04342189 13.33423287 17.37890625 14.59375 C18.00941895 15.18929688 18.63993164 15.78484375 19.28955078 16.3984375 C21.84079779 18.78727284 24.46536029 21.08296754 27.11328125 23.36328125 C29.43658787 25.37873772 31.71748465 27.43848462 34 29.5 C36.95869751 32.17048344 39.92926472 34.82298058 42.9375 37.4375 C47.13164365 41.08937053 51.23094292 44.84266184 55.33984375 48.58984375 C57.56246304 50.60358252 59.80068349 52.59312037 62.0625 54.5625 C62.68898438 55.11164063 63.31546875 55.66078125 63.9609375 56.2265625 C65.47714048 57.54525245 67.00509011 58.85046086 68.5390625 60.1484375 C77.15499802 67.59524902 82.88184715 75.25137549 84.35546875 86.78125 C84.89033436 97.76767879 80.8769571 107.551167 74 116 C68.46025473 111.3848766 63.33582976 106.47263865 58.25073242 101.36425781 C57.40436218 100.5180336 56.55799194 99.67180939 55.68597412 98.79994202 C53.38492596 96.49832003 51.08609993 94.19450706 48.78827453 91.88966846 C46.37671561 89.47181863 43.96228639 87.05683835 41.548172 84.64154053 C36.98365739 80.07392795 32.42169546 75.50377479 27.86066467 70.93268371 C22.67251673 65.73334111 17.48151503 60.53685169 12.29027402 55.34059763 C2.05234419 45.09266417 -8.18235575 34.84151167 -18.41474628 24.58804703 C-19.60924365 23.39144489 -20.80444979 22.19555021 -22 21 C-21.58492188 20.65710938 -21.16984375 20.31421875 -20.7421875 19.9609375 C-13.41455743 13.73705087 -6.749665 6.8349838 0 0 Z " fill="#FE6C52" transform="translate(305,303)"/>
<path d="M0 0 C49.995 0.495 49.995 0.495 101 1 C101 10.9 101 20.8 101 31 C64.37 31 27.74 31 -10 31 C-7.69 24.73 -5.38 18.46 -3 12 C-2.01 8.04 -1.02 4.08 0 0 Z " fill="#AEB3C7" transform="translate(299,246)"/>
<path d="M0 0 C33.33 0 66.66 0 101 0 C101 9.9 101 19.8 101 30 C68.66 30 36.32 30 3 30 C2.34 23.07 1.68 16.14 1 9 C0.67 6.03 0.34 3.06 0 0 Z " fill="#AFB4C8" transform="translate(299,194)"/>
<path d="M0 0 C5.86237297 4.3794793 10.31058415 9.80161944 12 17 C13.07159301 26.28713943 12.72017111 34.34526981 7 42 C1.32265732 48.52076165 -5.5755683 52.35280458 -14.17578125 53.37890625 C-23.86493142 53.73186002 -32.23879261 51.52705577 -39.46484375 44.84765625 C-45.51549685 37.56531804 -47.75225496 29.26885576 -47 20 C-44.9150339 10.40302368 -40.16380888 4.27148802 -32 -1 C-22.48687626 -6.70787425 -9.45081945 -5.3002226 0 0 Z " fill="#7786F2" transform="translate(193,198)"/>
<path d="M0 0 C6.14625 -0.0825 12.2925 -0.165 18.625 -0.25 C20.55424316 -0.28641602 22.48348633 -0.32283203 24.47119141 -0.36035156 C26.01463714 -0.37204314 27.55809529 -0.38223386 29.1015625 -0.390625 C29.89135498 -0.41108887 30.68114746 -0.43155273 31.49487305 -0.45263672 C36.81652152 -0.45597422 39.76870757 0.48840188 44 4 C46.76623223 7.27580133 47.90401834 9.2321467 48.4375 13.5 C47.70216971 19.38264231 45.37252059 23.07980913 41 27 C41.94875 27.7425 42.8975 28.485 43.875 29.25 C47.05873353 31.74161755 48.70350901 34.10383671 49.3359375 38.1484375 C49.43144261 43.5922286 48.86060036 46.84985462 45 51 C39.48833764 54.68197444 34.64633245 55.56668989 28.125 55.390625 C27.04605469 55.38458252 27.04605469 55.38458252 25.9453125 55.37841797 C23.29660992 55.35772498 20.64827525 55.30188195 18 55.25 C12.06 55.1675 6.12 55.085 0 55 C0 36.85 0 18.7 0 0 Z " fill="#7886F2" transform="translate(212,195)"/>
<path d="M0 0 C32.01 0 64.02 0 97 0 C97 9.9 97 19.8 97 30 C81.34865129 30.5704364 81.34865129 30.5704364 74.640625 30.74609375 C70.07501628 30.86587917 65.51087425 30.99429944 60.94726562 31.17626953 C57.26481551 31.32253813 53.583161 31.42828742 49.89866638 31.50683594 C48.49811624 31.54365454 47.09786077 31.59470119 45.69837952 31.66064453 C34.74905021 32.16263834 34.74905021 32.16263834 30.44262695 29.30004883 C28.43801626 27.29912435 26.7378885 25.2317342 25 23 C23.73370278 21.82619075 22.44472777 20.67589814 21.125 19.5625 C18.02432474 16.89433543 14.97103128 14.181905 11.9375 11.4375 C8.95563374 8.74137672 5.9494169 6.08996333 2.875 3.5 C1.92625 2.675 0.9775 1.85 0 1 C0 0.67 0 0.34 0 0 Z " fill="#AFB4C7" transform="translate(303,300)"/>
<path d="M0 0 C32.01 0 64.02 0 97 0 C97 0.33 97 0.66 97 1 C96.05382812 1.14695312 95.10765625 1.29390625 94.1328125 1.4453125 C62.92973477 6.60119444 34.72375558 21.78440076 15 47 C9.69362424 54.65944731 5.07495199 62.62630003 1 71 C0.67 71 0.34 71 0 71 C0 47.57 0 24.14 0 0 Z " fill="#D9DEEA" transform="translate(72,103)"/>
<path d="M0 0 C7.84375 6.72321429 7.84375 6.72321429 10.375 9.75 C13.03742964 12.87805635 15.74368764 15.95404126 18.5 19 C21.17048344 21.95869751 23.82298058 24.92926472 26.4375 27.9375 C29.24822525 31.16559512 32.115799 34.33738443 35 37.5 C38.46526011 41.30027015 41.89167303 45.12691665 45.26171875 49.01171875 C47.97122893 52.11091129 50.73561593 55.16103242 53.49609375 58.21484375 C55 60 55 60 55 61 C-23.87 61 -102.74 61 -184 61 C-184 60.67 -184 60.34 -184 60 C-123.28 60 -62.56 60 0 60 C0 40.2 0 20.4 0 0 Z " fill="#E6E9F3" transform="translate(256,341)"/>
<path d="M0 0 C3.53675651 1.52852925 5.99564746 3.6416389 8.8125 6.25 C12.81134073 9.91708506 16.86175264 13.49148593 21 17 C19.51770549 20.43605181 17.5704826 22.68701591 14.9375 25.328125 C14.14085937 26.12734375 13.34421875 26.9265625 12.5234375 27.75 C11.27433594 28.9875 11.27433594 28.9875 10 30.25 C8.75089844 31.51070313 8.75089844 31.51070313 7.4765625 32.796875 C6.67992187 33.5909375 5.88328125 34.385 5.0625 35.203125 C4.33160156 35.93176758 3.60070312 36.66041016 2.84765625 37.41113281 C1 39 1 39 -1 39 C-1.24476074 39.57073242 -1.48952148 40.14146484 -1.74169922 40.72949219 C-3.2201947 43.39732454 -4.96126548 45.18716315 -7.1328125 47.328125 C-7.93847656 48.12734375 -8.74414062 48.9265625 -9.57421875 49.75 C-10.41597656 50.575 -11.25773437 51.4 -12.125 52.25 C-12.97449219 53.09046875 -13.82398438 53.9309375 -14.69921875 54.796875 C-16.79504923 56.86915683 -18.89540713 58.93662393 -21 61 C-23.96871005 59.67369199 -25.95641746 58.26172234 -28.1640625 55.8828125 C-29.01097656 54.97208984 -29.01097656 54.97208984 -29.875 54.04296875 C-30.4525 53.41003906 -31.03 52.77710938 -31.625 52.125 C-32.21023437 51.49980469 -32.79546875 50.87460937 -33.3984375 50.23046875 C-36.12982975 47.26728404 -38.30994224 44.6915215 -40 41 C-39.55309814 40.67427002 -39.10619629 40.34854004 -38.64575195 40.01293945 C-23.60066533 28.97320035 -8.53608271 17.07216542 0 0 Z " fill="#626AE7" transform="translate(284,285)"/>
<path d="M0 0 C1.13199353 0.9080162 2.25532363 1.82683826 3.375 2.75 C4.00148437 3.26046875 4.62796875 3.7709375 5.2734375 4.296875 C7.08312318 6.08199481 8.00117455 7.67949644 9 10 C8.175 10.928125 7.35 11.85625 6.5 12.8125 C3.06880189 17.60837917 3.21807607 22.3117182 4 28 C5.61790679 32.68341439 7.61263687 35.62351164 12 38 C17.39069617 38.80654691 21.62408349 38.71252819 26.5 36.1875 C28.39660204 34.52797321 30.21798871 32.78201129 32 31 C34.97 33.97 37.94 36.94 41 40 C37.85524344 46.28951311 33.29725329 48.82603002 26.875 51.234375 C17.86143596 53.63472629 9.09044086 52.56603364 1 48 C-6.13948095 43.52909217 -9.39209835 36.82370495 -12 29 C-12.88383152 19.58379501 -10.91849078 11.48515011 -5 4 C-2.25 1.625 -2.25 1.625 0 0 Z " fill="#626CEA" transform="translate(158,199)"/>
<path d="M0 0 C4.62 0 9.24 0 14 0 C14.07451939 5.69251691 14.12877612 11.38474575 14.16479492 17.07763672 C14.17982075 19.01160635 14.20024726 20.94554226 14.22631836 22.87939453 C14.26297591 25.66968136 14.27978868 28.45951511 14.29296875 31.25 C14.30845261 32.10553467 14.32393646 32.96106934 14.33988953 33.8425293 C14.34153682 39.80559401 13.78319111 45.84088106 9.65397644 50.52783203 C3.6167855 55.84714896 -1.98132632 56.42421788 -9.75 56.3359375 C-14.30381398 55.86523077 -17.14873234 54.41648167 -21 52 C-20.46884894 47.48521602 -18.63379708 44.65333143 -16 41 C-15.44828125 41.16371094 -14.8965625 41.32742187 -14.328125 41.49609375 C-11.73385993 42.05760414 -9.40164589 42.09739008 -6.75 42.0625 C-5.85796875 42.05347656 -4.9659375 42.04445312 -4.046875 42.03515625 C-3.03367187 42.01775391 -3.03367187 42.01775391 -2 42 C-0.8292551 37.7858024 -0.77324396 33.64492345 -0.68359375 29.296875 C-0.66281265 28.45908508 -0.64203156 27.62129517 -0.62062073 26.75811768 C-0.5553745 24.08882644 -0.49635642 21.41943902 -0.4375 18.75 C-0.39429106 16.93749016 -0.35067601 15.12498995 -0.30664062 13.3125 C-0.19971871 8.87509791 -0.09838134 4.43759932 0 0 Z " fill="#616BEA" transform="translate(125,195)"/>
<path d="M0 0 C4.33593677 4.08088166 7.38190886 8.4212378 7.75 14.5 C7.38190886 20.5787622 4.33593677 24.91911834 0 29 C-4.6544084 30.61892466 -9.02119637 30.86104671 -13.875 30 C-18.70067067 27.42859467 -21.21280239 24.1789768 -22.875 19 C-23.63663611 13.56432335 -23.79816143 8.59472462 -20.625 3.9375 C-15.6204815 -2.3799323 -7.19858877 -2.50385696 0 0 Z " fill="#E7EBF4" transform="translate(183.875,208)"/>
<path d="M0 0 C3.53675651 1.52852925 5.99564746 3.6416389 8.8125 6.25 C12.81134073 9.91708506 16.86175264 13.49148593 21 17 C19.51346494 20.46629835 17.54277649 22.69022036 14.8671875 25.328125 C14.06152344 26.12734375 13.25585938 26.9265625 12.42578125 27.75 C11.58402344 28.575 10.74226563 29.4 9.875 30.25 C9.02550781 31.09046875 8.17601562 31.9309375 7.30078125 32.796875 C5.20495077 34.86915683 3.10459287 36.93662393 1 39 C-3.43626553 36.97699054 -6.38251359 34.02132242 -9.8125 30.625 C-10.42287109 30.0475 -11.03324219 29.47 -11.66210938 28.875 C-12.23380859 28.31039063 -12.80550781 27.74578125 -13.39453125 27.1640625 C-13.91893799 26.65311035 -14.44334473 26.1421582 -14.98364258 25.61572266 C-16 24 -16 24 -15.76293945 21.92553711 C-14.75477699 19.38109637 -13.27649647 17.90140079 -11.375 15.9375 C-6.85459009 11.04174919 -3.41208037 5.70457187 0 0 Z " fill="#7783EF" transform="translate(284,285)"/>
<path d="M0 0 C18.15 0 36.3 0 55 0 C55 7.92 55 15.84 55 24 C45.37 18.65 45.37 18.65 41.3125 16.0625 C28.77343705 8.50018142 14.41879801 3.42439966 0 1 C0 0.67 0 0.34 0 0 Z " fill="#DADFE9" transform="translate(201,104)"/>
<path d="M0 0 C4.08278998 1.80402348 6.79877913 4.10553231 9 8 C9.45983332 12.95898679 8.71325928 16.12214243 5.5625 20 C1.65084635 23.05299797 -0.87227142 23.39853918 -5.7421875 23.3515625 C-9.37581896 22.78577213 -10.85914724 20.85447035 -13 18 C-15.25299389 14.67415187 -15.62269363 11.96967191 -15 8 C-10.79153893 1.70021779 -7.73714635 -0.5245523 0 0 Z " fill="#FD6E55" transform="translate(415,118)"/>
<path d="M0 0 C3.44617085 1.25917781 5.46869724 2.41728084 7.9375 5.125 C9.47185261 9.27677764 9.27823415 12.77493862 8 17 C5.80176185 19.70552388 4.10443333 21.44778333 1 23 C-4.25279338 23.34444547 -7.82634624 23.57741751 -12 20 C-14.79795055 15.98960421 -15.60500874 12.71309288 -14.765625 7.96875 C-12.25258279 1.50664145 -6.61537284 -1.08251556 0 0 Z " fill="#FD6E55" transform="translate(380,118)"/>
<path d="M0 0 C9.68356138 -0.45789169 9.68356138 -0.45789169 13.875 1 C17.61523323 4.52021951 20.61042131 8.25106274 21.34765625 13.453125 C21.41226341 19.17547319 21.41226341 19.17547319 20 22 C16.63664406 20.54254576 14.45465995 18.68882146 11.890625 16.0859375 C11.13652344 15.32539063 10.38242188 14.56484375 9.60546875 13.78125 C8.82816406 12.9871875 8.05085937 12.193125 7.25 11.375 C6.06083984 10.17230469 6.06083984 10.17230469 4.84765625 8.9453125 C2.89385507 6.96797154 0.94487897 4.98611091 -1 3 C-0.67 2.01 -0.34 1.02 0 0 Z " fill="#FAFBFE" transform="translate(170,207)"/>
<path d="M0 0 C2.60444348 -0.05394705 5.20776998 -0.09364469 7.8125 -0.125 C8.55048828 -0.14175781 9.28847656 -0.15851563 10.04882812 -0.17578125 C13.91246426 -0.21074628 15.70903668 -0.19397555 19 2 C19.375 5 19.375 5 19 8 C15.20836973 10.52775351 12.19125969 10.22443035 7.8125 10.125 C7.06291016 10.11597656 6.31332031 10.10695312 5.54101562 10.09765625 C3.69387346 10.07412578 1.84689588 10.03825561 0 10 C0 6.7 0 3.4 0 0 Z " fill="#FDFDFE" transform="translate(227,228)"/>
<path d="M0 0 C2.62527189 -0.05382106 5.24944713 -0.09358313 7.875 -0.125 C8.62136719 -0.14175781 9.36773437 -0.15851563 10.13671875 -0.17578125 C12.09194461 -0.1933959 14.04742021 -0.10320189 16 0 C18 2 18 2 18.25 4.5 C18 7 18 7 16 9 C13.25514407 9.14507695 10.61519457 9.18652423 7.875 9.125 C7.12089844 9.11597656 6.36679688 9.10695312 5.58984375 9.09765625 C3.72642746 9.0740687 1.86317407 9.03819719 0 9 C0 6.03 0 3.06 0 0 Z " fill="#FDFDFE" transform="translate(227,207)"/>
<path d="M0 0 C3.3 0 6.6 0 10 0 C8.45614871 4.14032846 6.48971062 7.93553053 4.375 11.8125 C3.88773437 12.7087207 3.88773437 12.7087207 3.390625 13.62304688 C2.59620849 15.08337135 1.79844624 16.54187491 1 18 C0.67 18 0.34 18 0 18 C0 12.06 0 6.12 0 0 Z " fill="#F9F9FA" transform="translate(72,156)"/>
</svg>
